<svg width="40" height="40" viewBox="0 0 40 40" fill="none" xmlns="http://www.w3.org/2000/svg">
<path d="M17.709 18.3022L17.709 32.8337" stroke="white" stroke-width="5" stroke-linecap="round"/>
<path d="M11.5887 5.75049C13.8036 5.77748 15.9567 6.88487 17.3032 8.89508C18.6459 10.8996 18.8904 13.3541 18.1828 15.4867L17.8947 16.3536L16.9813 16.3427C14.7665 16.3157 12.6134 15.2083 11.2669 13.1981C9.92421 11.1935 9.67961 8.739 10.3873 6.60641L10.6753 5.73958L11.5887 5.75049Z" stroke="white" stroke-width="2.5"/>
<path d="M28.952 13.1604C26.8907 12.3482 24.4793 12.5597 22.4734 13.9119C20.473 15.2605 19.3202 17.4415 19.1709 19.6842L19.1094 20.5954L19.9605 20.93C22.0217 21.7422 24.4329 21.5314 26.4387 20.1794C28.4391 18.8309 29.5927 16.65 29.7422 14.4074L29.8027 13.4959L28.952 13.1604Z" stroke="white" stroke-width="2.5"/>
</svg>
