<svg width="40" height="40" viewBox="0 0 40 40" fill="none" xmlns="http://www.w3.org/2000/svg">
<g clip-path="url(#clip0_insights_sel)">
<path d="M15.3565 12.6601C15.4796 12.4294 15.8104 12.4294 15.9335 12.6601L17.8712 16.2922C17.9017 16.3494 17.9486 16.3963 18.0058 16.4268L21.6379 18.3645C21.8686 18.4876 21.8686 18.8184 21.6379 18.9415L18.0058 20.8792C17.9486 20.9098 17.9017 20.9566 17.8712 21.0138L15.9335 24.6459C15.8104 24.8767 15.4796 24.8767 15.3565 24.6459L13.4188 21.0138C13.3882 20.9566 13.3414 20.9098 13.2842 20.8792L9.65208 18.9415C9.42132 18.8184 9.42132 18.4876 9.65208 18.3645L13.2842 16.4268C13.3414 16.3963 13.3882 16.3494 13.4188 16.2922L15.3565 12.6601Z" fill="white" stroke="white" stroke-width="1.56951"/>
<path d="M24.4573 21.3627C24.525 21.2358 24.7069 21.2358 24.7746 21.3627L25.8404 23.3604C25.8572 23.3918 25.8829 23.4176 25.9144 23.4344L27.9121 24.5001C28.039 24.5679 28.039 24.7498 27.9121 24.8175L25.9144 25.8832C25.8829 25.9 25.8572 25.9258 25.8404 25.9572L24.7746 27.9549C24.7069 28.0818 24.525 28.0818 24.4573 27.9549L23.3915 25.9572C23.3748 25.9258 23.349 25.9 23.3175 25.8832L21.3199 24.8175C21.193 24.7498 21.193 24.5679 21.3199 24.5001L23.3175 23.4344C23.349 23.4176 23.3748 23.3918 23.3915 23.3604L24.4573 21.3627Z" fill="white" stroke="white" stroke-width="1.56951"/>
<path d="M24.1057 9.30059C24.1734 9.17367 24.3554 9.17367 24.4231 9.30059L25.4888 11.2982C25.5056 11.3297 25.5314 11.3555 25.5628 11.3723L27.5605 12.438C27.6874 12.5057 27.6874 12.6876 27.5605 12.7553L25.5628 13.8211C25.5314 13.8379 25.5056 13.8636 25.4888 13.8951L24.4231 15.8928C24.3554 16.0197 24.1734 16.0197 24.1057 15.8928L23.04 13.8951C23.0232 13.8636 22.9974 13.8379 22.966 13.8211L20.9683 12.7553C20.8414 12.6876 20.8414 12.5057 20.9683 12.438L22.966 11.3723C22.9974 11.3555 23.0232 11.3297 23.04 11.2982L24.1057 9.30059Z" fill="white" stroke="white" stroke-width="1.56951"/>
</g>
<defs>
<clipPath id="clip0_insights_sel">
<rect width="20.9077" height="20.9077" fill="white" transform="translate(8.6084 8.1991)"/>
</clipPath>
</defs>
</svg>
