<svg width="40" height="40" viewBox="0 0 40 40" fill="none" xmlns="http://www.w3.org/2000/svg">
<g clip-path="url(#clip0_insights_sel)">
<!-- 4-point stars with edges curved inward (quadratic arcs toward center) -->
<path d="M 15.65 12.65 Q 19.85 14.45 21.65 18.65 Q 19.85 22.85 15.65 24.65 Q 11.45 22.85 9.65 18.65 Q 11.45 14.45 15.65 12.65 Z" fill="white" stroke="white" stroke-width="1.57"/>
<path d="M 24.62 21.36 Q 26.93 22.35 27.92 24.66 Q 26.93 26.97 24.62 27.96 Q 22.31 26.97 21.32 24.66 Q 22.31 22.35 24.62 21.36 Z" fill="white" stroke="white" stroke-width="1.57"/>
<path d="M 24.27 9.3 Q 26.58 10.29 27.57 12.6 Q 26.58 14.91 24.27 15.9 Q 21.96 14.91 20.97 12.6 Q 21.96 10.29 24.27 9.3 Z" fill="white" stroke="white" stroke-width="1.57"/>
</g>
<defs>
<clipPath id="clip0_insights_sel">
<rect width="20.9077" height="20.9077" fill="white" transform="translate(8.6084 8.1991)"/>
</clipPath>
</defs>
</svg>
