<svg width="40" height="40" viewBox="0 0 40 40" fill="none" xmlns="http://www.w3.org/2000/svg">
<path d="M18.7363 17.6106L18.7363 27.5411" stroke="white" stroke-width="2.2088" stroke-linecap="round"/>
<path d="M14.5575 8.7829C16.1531 8.80234 17.7015 9.60037 18.6677 11.0427C19.6307 12.4802 19.8054 14.2391 19.2988 15.7658L19.0439 16.5311L18.237 16.5222C16.6414 16.5027 15.093 15.7047 14.1268 14.2624C13.1638 12.8248 12.99 11.066 13.4967 9.53926L13.7506 8.77297L14.5575 8.7829Z" fill="white" stroke="white" stroke-width="2.2088"/>
<path d="M26.5124 13.8641C25.0274 13.279 23.2924 13.4324 21.8531 14.4027C20.4186 15.3698 19.594 16.9327 19.4871 18.5381L19.4329 19.3437L20.1837 19.6395C21.6688 20.2247 23.4045 20.0716 24.844 19.1012C26.2784 18.1342 27.103 16.5712 27.21 14.9658L27.2641 14.1603L26.5124 13.8641Z" fill="white" stroke="white" stroke-width="2.2088"/>
</svg>
