<svg width="65" height="87" viewBox="0 0 65 87" fill="none" xmlns="http://www.w3.org/2000/svg">
<path d="M37.2591 28.402H32.5254V78.8944H37.2591V28.402Z" fill="#036109"/>
<path d="M52.9143 31.4349C48.5579 38.2996 41.1039 42.297 32.5419 43.2365H32.533C29.7322 35.0911 30.1709 26.6399 34.5317 19.7708C38.888 12.9017 46.3465 8.90432 54.9129 7.96924C57.7138 16.1191 57.275 24.5658 52.9143 31.4349V31.4349Z" fill="#036109"/>
<path opacity="0.2" d="M52.9144 31.4349C48.5581 38.2996 41.104 42.2969 32.542 43.2364H32.5376L54.9131 7.97363C57.7139 16.1235 57.2752 24.5702 52.9144 31.4393V31.4349Z" fill="#8ADF11"/>
<path d="M32.5685 19.8373C36.8761 26.733 37.2572 35.1798 34.3988 43.3074V43.3163C25.8368 42.3192 18.4093 38.2686 14.1017 31.3685C9.79417 24.4684 9.41304 16.0172 12.2715 7.88953C20.829 8.88665 28.2565 12.9372 32.5641 19.8373H32.5685Z" fill="#036109"/>
<path opacity="0.2" d="M32.569 19.8373C36.8766 26.733 37.2577 35.1797 34.3993 43.3074H34.3948L12.2764 7.89392C20.8339 8.89105 28.2614 12.9416 32.569 19.8417V19.8373Z" fill="#8ADF11"/>
<path d="M12.8018 75.4862C12.8018 79.7721 13.6655 83.1672 15.2381 86.4468C15.3673 86.7162 15.6414 86.8848 15.9402 86.8848H51.8118C52.1107 86.8848 52.3849 86.7165 52.5127 86.4464C54.1378 83.0131 54.9503 79.0651 54.9503 74.6025C54.9503 70.1255 54.0961 66.1787 52.3878 62.7621C50.6795 59.3454 48.2348 56.724 45.0538 54.8979C41.8727 53.0128 38.191 52.0703 34.0086 52.0703C29.7672 52.0703 26.056 53.0423 22.875 54.9862C19.694 56.9302 17.2198 59.6694 15.4526 63.2039C13.6854 66.7384 12.8018 70.8324 12.8018 75.4862Z" fill="white" fill-opacity="0.8"/>
</svg>
