<svg width="174" height="79" viewBox="0 0 174 79" fill="none" xmlns="http://www.w3.org/2000/svg" aria-hidden="true">
<path d="M109 38H106V70H109V38Z" fill="#036109"/>
<path d="M118.922 39.9221C116.161 44.2727 111.437 46.806 106.01 47.4015H106.005C104.23 42.2392 104.508 36.8832 107.271 32.5299C110.032 28.1765 114.759 25.6432 120.188 25.0505C121.963 30.2156 121.685 35.5688 118.922 39.9221V39.9221Z" fill="#036109"/>
<path opacity="0.2" d="M118.921 39.9221C116.16 44.2727 111.436 46.806 106.01 47.4015H106.007L120.188 25.0533C121.963 30.2184 121.685 35.5716 118.921 39.9249V39.9221Z" fill="#8ADF11"/>
<path d="M106.027 32.572C108.757 36.9422 108.999 42.2954 107.187 47.4464V47.452C101.761 46.8201 97.0538 44.253 94.3238 39.88C91.5938 35.507 91.3523 30.151 93.1638 25C98.5873 25.6319 103.295 28.199 106.024 32.572H106.027Z" fill="#036109"/>
<path opacity="0.2" d="M106.027 32.572C108.757 36.9422 108.999 42.2954 107.187 47.4464H107.185L93.1667 25.0028C98.5902 25.6347 103.297 28.2018 106.027 32.5748V32.572Z" fill="#8ADF11"/>
<path d="M20.416 46.4401C22.656 46.4401 24.616 47.0187 26.296 48.1761C28.0133 49.3334 29.32 50.9947 30.216 53.1601C31.1493 55.2881 31.616 57.7894 31.616 60.6641C31.616 65.2934 30.5147 68.9334 28.312 71.5841C26.1467 74.2347 23.1413 75.5601 19.296 75.5601C17.6533 75.5601 16.0853 75.1494 14.592 74.3281C13.0987 73.4694 11.848 72.2934 10.84 70.8001L10.504 73.5441C10.3547 74.7387 9.73867 75.3361 8.656 75.3361H8.264C7.66667 75.3361 7.18133 75.1681 6.808 74.8321C6.43467 74.4961 6.248 73.9734 6.248 73.2641V37.9841H4.792C3.59733 37.9841 3 37.4801 3 36.4721V35.0721C3 34.0641 3.59733 33.5601 4.792 33.5601H9.272C9.86933 33.5601 10.3547 33.7654 10.728 34.1761C11.1013 34.5494 11.288 35.0347 11.288 35.6321V52.4881C11.9973 50.7334 13.192 49.2961 14.872 48.1761C16.5893 47.0187 18.4373 46.4401 20.416 46.4401ZM18.848 71.1921C21.3493 71.1921 23.2533 70.2774 24.56 68.4481C25.8667 66.5814 26.52 63.8934 26.52 60.3841C26.52 57.3601 25.8853 55.0081 24.616 53.3281C23.3467 51.6481 21.5547 50.8081 19.24 50.8081C17.784 50.8081 16.44 51.2187 15.208 52.0401C14.0133 52.8241 13.0613 53.9067 12.352 55.2881C11.6427 56.6694 11.288 58.1814 11.288 59.8241V67.1041C12.296 68.4107 13.4533 69.4187 14.76 70.1281C16.0667 70.8374 17.4293 71.1921 18.848 71.1921Z" fill="white"/>
<path d="M60.7419 59.6001C60.7419 59.7867 60.6859 60.6081 60.5739 62.0641H40.6939C40.8806 64.9014 41.7019 67.1414 43.1579 68.7841C44.6139 70.3894 46.5553 71.1921 48.9819 71.1921C50.6246 71.1921 51.9313 70.9307 52.9019 70.4081C53.8726 69.8854 54.7873 68.9521 55.6459 67.6081C55.9446 67.1601 56.2246 66.8427 56.4859 66.6561C56.7846 66.4694 57.1206 66.3761 57.4939 66.3761C58.0539 66.3761 58.5393 66.5627 58.9499 66.9361C59.3979 67.2721 59.6219 67.7014 59.6219 68.2241C59.6219 68.9334 59.3606 69.6614 58.8379 70.4081C57.7553 72.1627 56.4113 73.4694 54.8059 74.3281C53.2006 75.1494 51.2033 75.5601 48.8139 75.5601C46.1633 75.5601 43.8299 74.9441 41.8139 73.7121C39.8353 72.4801 38.2859 70.7441 37.1659 68.5041C36.0833 66.2641 35.5419 63.6881 35.5419 60.7761C35.5419 57.9014 36.0833 55.3814 37.1659 53.2161C38.2486 51.0507 39.7793 49.3894 41.7579 48.2321C43.7366 47.0374 46.0326 46.4401 48.6459 46.4401C52.2673 46.4401 55.1793 47.5974 57.3819 49.9121C59.6219 52.2267 60.7419 55.4561 60.7419 59.6001ZM48.5339 50.5841C46.3313 50.5841 44.5579 51.2561 43.2139 52.6001C41.9073 53.9067 41.1046 55.8107 40.8059 58.3121H55.6459C55.6086 53.1601 53.2379 50.5841 48.5339 50.5841Z" fill="white"/>
<path d="M86.4471 66.3761C87.0071 66.3761 87.4924 66.5627 87.9031 66.9361C88.3511 67.2721 88.5751 67.7014 88.5751 68.2241C88.5751 68.9334 88.3137 69.6614 87.7911 70.4081C86.7084 72.1627 85.3644 73.4694 83.7591 74.3281C82.1537 75.1494 80.1564 75.5601 77.7671 75.5601C75.1164 75.5601 72.7831 74.9441 70.7671 73.7121C68.7884 72.4801 67.2391 70.7441 66.1191 68.5041C65.0364 66.2641 64.4951 63.6881 64.4951 60.7761C64.4951 57.9014 65.0364 55.3814 66.1191 53.2161C67.2391 51.0507 68.7884 49.3894 70.7671 48.2321C72.7457 47.0374 75.0417 46.4401 77.6551 46.4401C79.8204 46.4401 81.7431 46.8134 83.4231 47.5601C85.1031 48.3067 86.4097 49.3707 87.3431 50.7521C88.2764 52.0961 88.7431 53.6267 88.7431 55.3441C88.7431 56.5014 88.4257 57.4161 87.7911 58.0881C87.1564 58.7601 86.3164 59.0961 85.2711 59.0961C84.3377 59.0961 83.5537 58.7974 82.9191 58.2001C82.3217 57.6027 82.0231 56.8561 82.0231 55.9601C82.0231 54.9147 82.3777 54.0747 83.0871 53.4401C82.6391 52.5814 81.9297 51.9281 80.9591 51.4801C80.0257 51.0321 78.8684 50.8081 77.4871 50.8081C74.9484 50.8081 72.9884 51.6667 71.6071 53.3841C70.2631 55.1014 69.5911 57.5467 69.5911 60.7201C69.5911 63.9681 70.3191 66.5254 71.7751 68.3921C73.2684 70.2587 75.3217 71.1921 77.9351 71.1921C79.5777 71.1921 80.8844 70.9307 81.8551 70.4081C82.8257 69.8854 83.7404 68.9521 84.5991 67.6081C84.8977 67.1601 85.1777 66.8427 85.4391 66.6561C85.7377 66.4694 86.0737 66.3761 86.4471 66.3761Z" fill="white"/>
<path d="M169.691 70.5761C170.886 70.5761 171.483 71.0801 171.483 72.0881V73.4881C171.483 74.4961 170.886 75.0001 169.691 75.0001H161.907C160.675 75.0001 160.059 74.4961 160.059 73.4881V72.0881C160.059 71.0801 160.675 70.5761 161.907 70.5761H163.195V59.7681C163.195 57.4534 163.046 55.6614 162.747 54.3921C162.448 53.1227 161.944 52.2081 161.235 51.6481C160.563 51.0881 159.592 50.8081 158.323 50.8081C157.016 50.8081 155.766 51.2561 154.571 52.1521C153.376 53.0481 152.424 54.2241 151.715 55.6801C151.006 57.1361 150.651 58.6854 150.651 60.3281V70.5761H151.939C153.171 70.5761 153.787 71.0801 153.787 72.0881V73.4881C153.787 74.4961 153.171 75.0001 151.939 75.0001H144.323C143.091 75.0001 142.475 74.4961 142.475 73.4881V72.0881C142.475 71.0801 143.091 70.5761 144.323 70.5761H145.611V59.7681C145.611 57.4534 145.462 55.6614 145.163 54.3921C144.864 53.1227 144.36 52.2081 143.651 51.6481C142.979 51.0881 142.008 50.8081 140.739 50.8081C139.432 50.8081 138.182 51.2561 136.987 52.1521C135.83 53.0481 134.878 54.2241 134.131 55.6801C133.422 57.1361 133.067 58.6854 133.067 60.3281V70.5761H134.355C135.587 70.5761 136.203 71.0801 136.203 72.0881V73.4881C136.203 74.4961 135.587 75.0001 134.355 75.0001H126.571C125.376 75.0001 124.779 74.4961 124.779 73.4881V72.0881C124.779 71.0801 125.376 70.5761 126.571 70.5761H128.027V51.4241H126.571C125.376 51.4241 124.779 50.9201 124.779 49.9121V48.5121C124.779 47.5041 125.376 47.0001 126.571 47.0001H130.995C131.592 47.0001 132.078 47.2054 132.451 47.6161C132.862 47.9894 133.067 48.4747 133.067 49.0721V53.2161C133.851 51.2374 135.064 49.6134 136.707 48.3441C138.387 47.0747 140.123 46.4401 141.915 46.4401C144.155 46.4401 145.947 47.0187 147.291 48.1761C148.672 49.3334 149.624 51.1067 150.147 53.4961C151.23 51.2561 152.592 49.5201 154.235 48.2881C155.878 47.0561 157.632 46.4401 159.499 46.4401C162.448 46.4401 164.632 47.4667 166.051 49.5201C167.507 51.5734 168.235 54.7281 168.235 58.9841V70.5761H169.691Z" fill="white"/>
<path d="M93.5 67.84C93.5 70.5562 94.0474 72.7079 95.044 74.7864C95.1259 74.9572 95.2996 75.064 95.489 75.064H118.223C118.412 75.064 118.586 74.9574 118.667 74.7862C119.697 72.6103 120.212 70.1082 120.212 67.28C120.212 64.4427 119.671 61.9413 118.588 59.776C117.505 57.6107 115.956 55.9493 113.94 54.792C111.924 53.5973 109.591 53 106.94 53C104.252 53 101.9 53.616 99.884 54.848C97.868 56.08 96.3 57.816 95.18 60.056C94.06 62.296 93.5 64.8907 93.5 67.84Z" fill="white" fill-opacity="0.8"/>
</svg>
