<svg width="168" height="79" viewBox="0 0 168 79" fill="none" xmlns="http://www.w3.org/2000/svg" aria-hidden="true">
	<path d="M105.5 38H102.5V70H105.5V38Z" fill="#036109"/>
	<path d="M115.422 39.9221C112.661 44.2727 107.937 46.806 102.511 47.4015H102.505C100.73 42.2392 101.008 36.8832 103.772 32.5299C106.533 28.1765 111.259 25.6431 116.688 25.0505C118.463 30.2156 118.185 35.5688 115.422 39.9221Z" fill="#036109"/>
	<path opacity="0.2" d="M115.422 39.9221C112.661 44.2726 107.937 46.806 102.511 47.4014H102.508L116.688 25.0533C118.464 30.2184 118.185 35.5716 115.422 39.9249V39.9221Z" fill="#8ADF11"/>
	<path d="M102.527 32.572C105.257 36.9422 105.499 42.2954 103.687 47.4464V47.452C98.261 46.8201 93.5538 44.253 90.8238 39.88C88.0938 35.507 87.8523 30.151 89.6638 25C95.0873 25.6319 99.7945 28.199 102.524 32.572H102.527Z" fill="#036109"/>
	<path opacity="0.2" d="M102.528 32.572C105.258 36.9422 105.499 42.2954 103.688 47.4464H103.685L89.667 25.0028C95.0904 25.6347 99.7977 28.2018 102.528 32.5748V32.572Z" fill="#8ADF11"/>
	<path d="M16.916 46.44C19.156 46.44 21.116 47.0187 22.796 48.176C24.5133 49.3333 25.82 50.9947 26.716 53.16C27.6493 55.288 28.116 57.7893 28.116 60.664C28.116 65.2933 27.0147 68.9333 24.812 71.584C22.6467 74.2347 19.6413 75.56 15.796 75.56C14.1533 75.56 12.5853 75.1493 11.092 74.328C9.59867 73.4693 8.348 72.2933 7.34 70.8L7.004 73.544C6.85467 74.7387 6.23867 75.336 5.156 75.336H4.764C4.16667 75.336 3.68133 75.168 3.308 74.832C2.93467 74.496 2.748 73.9733 2.748 73.264V37.984H1.292C0.0973333 37.984 -0.5 37.48 -0.5 36.472V35.072C-0.5 34.064 0.0973333 33.56 1.292 33.56H5.772C6.36933 33.56 6.85467 33.7653 7.228 34.176C7.60133 34.5493 7.788 35.0347 7.788 35.632V52.488C8.49733 50.7333 9.692 49.296 11.372 48.176C13.0893 47.0187 14.9373 46.44 16.916 46.44ZM15.348 71.192C17.8493 71.192 19.7533 70.2773 21.06 68.448C22.3667 66.5813 23.02 63.8933 23.02 60.384C23.02 57.36 22.3853 55.008 21.116 53.328C19.8467 51.648 18.0547 50.808 15.74 50.808C14.284 50.808 12.94 51.2187 11.708 52.04C10.5133 52.824 9.56133 53.9067 8.852 55.288C8.14267 56.6693 7.788 58.1813 7.788 59.824V67.104C8.796 68.4107 9.95333 69.4187 11.26 70.128C12.5667 70.8373 13.9293 71.192 15.348 71.192Z" fill="currentColor"/>
	<path d="M57.2419 59.6C57.2419 59.7867 57.1859 60.608 57.0739 62.064H37.1939C37.3806 64.9013 38.2019 67.1413 39.6579 68.784C41.1139 70.3893 43.0553 71.192 45.4819 71.192C47.1246 71.192 48.4313 70.9307 49.4019 70.408C50.3726 69.8853 51.2873 68.952 52.1459 67.608C52.4446 67.16 52.7246 66.8427 52.9859 66.656C53.2846 66.4693 53.6206 66.376 53.9939 66.376C54.5539 66.376 55.0393 66.5627 55.4499 66.936C55.8979 67.272 56.1219 67.7013 56.1219 68.224C56.1219 68.9333 55.8606 69.6613 55.3379 70.408C54.2553 72.1627 52.9113 73.4693 51.3059 74.328C49.7006 75.1493 47.7033 75.56 45.3139 75.56C42.6633 75.56 40.3299 74.944 38.3139 73.712C36.3353 72.48 34.7859 70.744 33.6659 68.504C32.5833 66.264 32.0419 63.688 32.0419 60.776C32.0419 57.9013 32.5833 55.3813 33.6659 53.216C34.7486 51.0507 36.2793 49.3893 38.2579 48.232C40.2366 47.0373 42.5326 46.44 45.1459 46.44C48.7673 46.44 51.6793 47.5973 53.8819 49.912C56.1219 52.2267 57.2419 55.456 57.2419 59.6ZM45.0339 50.584C42.8313 50.584 41.0579 51.256 39.7139 52.6C38.4073 53.9067 37.6046 55.8107 37.3059 58.312H52.1459C52.1086 53.16 49.7379 50.584 45.0339 50.584Z" fill="currentColor"/>
	<path d="M82.9471 66.376C83.5071 66.376 83.9924 66.5627 84.4031 66.936C84.8511 67.272 85.0751 67.7013 85.0751 68.224C85.0751 68.9333 84.8137 69.6613 84.2911 70.408C83.2084 72.1627 81.8644 73.4693 80.2591 74.328C78.6537 75.1493 76.6564 75.56 74.2671 75.56C71.6164 75.56 69.2831 74.944 67.2671 73.712C65.2884 72.48 63.7391 70.744 62.6191 68.504C61.5364 66.264 60.9951 63.688 60.9951 60.776C60.9951 57.9013 61.5364 55.3813 62.6191 53.216C63.7391 51.0507 65.2884 49.3893 67.2671 48.232C69.2457 47.0373 71.5417 46.44 74.1551 46.44C76.3204 46.44 78.2431 46.8133 79.9231 47.56C81.6031 48.3067 82.9097 49.3707 83.8431 50.752C84.7764 52.096 85.2431 53.6267 85.2431 55.344C85.2431 56.5013 84.9257 57.416 84.2911 58.088C83.6564 58.76 82.8164 59.096 81.7711 59.096C80.8377 59.096 80.0537 58.7973 79.4191 58.2C78.8217 57.6027 78.5231 56.856 78.5231 55.96C78.5231 54.9147 78.8777 54.0747 79.5871 53.44C79.1391 52.5813 78.4297 51.928 77.4591 51.48C76.5257 51.032 75.3684 50.808 73.9871 50.808C71.4484 50.808 69.4884 51.6667 68.1071 53.384C66.7631 55.1013 66.0911 57.5467 66.0911 60.72C66.0911 63.968 66.8191 66.5253 68.2751 68.392C69.7684 70.2587 71.8217 71.192 74.4351 71.192C76.0777 71.192 77.3844 70.9307 78.3551 70.408C79.3257 69.8853 80.2404 68.952 81.0991 67.608C81.3977 67.16 81.6777 66.8427 81.9391 66.656C82.2377 66.4693 82.5737 66.376 82.9471 66.376Z" fill="currentColor"/>
	<path d="M166.191 70.576C167.386 70.576 167.983 71.08 167.983 72.088V73.488C167.983 74.496 167.386 75 166.191 75H158.407C157.175 75 156.559 74.496 156.559 73.488V72.088C156.559 71.08 157.175 70.576 158.407 70.576H159.695V59.768C159.695 57.4533 159.546 55.6613 159.247 54.392C158.948 53.1227 158.444 52.208 157.735 51.648C157.063 51.088 156.092 50.808 154.823 50.808C153.516 50.808 152.266 51.256 151.071 52.152C149.876 53.048 148.924 54.224 148.215 55.68C147.506 57.136 147.151 58.6853 147.151 60.328V70.576H148.439C149.671 70.576 150.287 71.08 150.287 72.088V73.488C150.287 74.496 149.671 75 148.439 75H140.823C139.591 75 138.975 74.496 138.975 73.488V72.088C138.975 71.08 139.591 70.576 140.823 70.576H142.111V59.768C142.111 57.4533 141.962 55.6613 141.663 54.392C141.364 53.1227 140.86 52.208 140.151 51.648C139.479 51.088 138.508 50.808 137.239 50.808C135.932 50.808 134.682 51.256 133.487 52.152C132.33 53.048 131.378 54.224 130.631 55.68C129.922 57.136 129.567 58.6853 129.567 60.328V70.576H130.855C132.087 70.576 132.703 71.08 132.703 72.088V73.488C132.703 74.496 132.087 75 130.855 75H123.071C121.876 75 121.279 74.496 121.279 73.488V72.088C121.279 71.08 121.876 70.576 123.071 70.576H124.527V51.424H123.071C121.876 51.424 121.279 50.92 121.279 49.912V48.512C121.279 47.504 121.876 47 123.071 47H127.495C128.092 47 128.578 47.2053 128.951 47.616C129.362 47.9893 129.567 48.4747 129.567 49.072V53.216C130.351 51.2373 131.564 49.6133 133.207 48.344C134.887 47.0747 136.623 46.44 138.415 46.44C140.655 46.44 142.447 47.0187 143.791 48.176C145.172 49.3333 146.124 51.1067 146.647 53.496C147.73 51.256 149.092 49.52 150.735 48.288C152.378 47.056 154.132 46.44 155.999 46.44C158.948 46.44 161.132 47.4667 162.551 49.52C164.007 51.5733 164.735 54.728 164.735 58.984V70.576H166.191Z" fill="currentColor"/>
	<path d="M90 67.84C90 70.5562 90.5474 72.7079 91.544 74.7864C91.6259 74.9572 91.7996 75.064 91.989 75.064H114.723C114.912 75.064 115.086 74.9574 115.167 74.7862C116.197 72.6103 116.712 70.1082 116.712 67.28C116.712 64.4427 116.171 61.9413 115.088 59.776C114.005 57.6107 112.456 55.9493 110.44 54.792C108.424 53.5973 106.091 53 103.44 53C100.752 53 98.4 53.616 96.384 54.848C94.368 56.08 92.8 57.816 91.68 60.056C90.56 62.296 90 64.8907 90 67.84Z" fill="currentColor" fill-opacity="0.8"/>
</svg>
